<svg width="88" height="150" viewBox="0 0 88 150" fill="none" xmlns="http://www.w3.org/2000/svg">
<g clip-path="url(#clip0_2_60)">
<path d="M61.3584 0.429615C55.4874 2.04491 51.0143 6.92187 49.3058 13.5384C48.0322 18.5707 48.2185 23.0438 49.9892 28.3246C50.4862 29.8467 50.89 31.3067 50.89 31.5862C50.89 31.8658 50.4862 33.2015 49.9892 34.5683L49.1194 37.0223L48.0011 33.947C46.6032 30.1262 46.0441 27.8586 45.6092 24.5038C44.9569 19.0366 45.4539 13.2588 47.0071 8.53717C47.442 7.20144 47.7526 5.9589 47.7215 5.80359C47.6594 5.61721 46.5722 6.58017 45.3297 7.88484C41.4778 11.9541 40.3284 15.3401 40.3284 22.7021C40.3284 29.0701 41.6642 34.9721 44.3667 40.5636L45.8888 43.7631L45.3918 45.2231C45.1122 46.0618 44.8326 46.7762 44.7705 46.8384C44.3977 47.2733 42.068 43.0797 40.4838 39.1346C37.9676 32.7977 36.9115 27.2995 36.9115 20.3723V16.0856L35.9485 16.8C34.5506 17.8251 30.6366 22.3915 28.4933 25.4978C24.455 31.3688 21.3797 38.8861 20.2925 45.5648C19.5781 49.8515 19.7955 59.2327 20.6964 63.6437C21.8457 69.1419 24.8589 76.069 28.4001 81.3498L30.0775 83.866L29.1767 86.1025C28.6797 87.3451 28.2137 88.5255 28.1516 88.774C27.872 89.7991 22.8087 82.6234 20.4478 77.7775C18.7083 74.2674 16.3785 67.3713 15.6019 63.5505C15.3224 62.1526 15.0428 59.0152 14.9496 56.5612C14.8564 54.1383 14.67 52.1502 14.5147 52.1502C14.142 52.1502 11.3152 57.0272 10.3522 59.2948C7.71184 65.5075 6.77993 69.9806 6.56249 77.1563C6.31398 84.9532 7.52546 93.185 9.88628 99.8947C10.1969 100.796 10.4144 101.541 10.3522 101.541C10.2901 101.541 9.60671 100.671 8.83012 99.5841C6.87312 96.8505 4.57443 92.0667 3.20764 87.8732C2.55531 85.9162 1.93404 84.1766 1.80979 84.0524C1.49915 83.7107 0.660439 86.9412 0.225551 90.2029C-0.240401 93.8684 0.03917 100.205 0.846819 104.275C2.46212 112.072 5.97228 118.719 12.0297 125.46C13.8313 127.448 13.4586 127.696 16.3475 122.819C21.2555 114.588 28.3069 100.702 33.1217 89.737C35.8242 83.5864 43.4348 65.1347 43.4348 64.762C43.4348 64.6066 47.2556 54.8527 53.2819 39.7248C57.6929 28.6663 68.1302 5.30657 68.503 5.67933C68.6894 5.86571 62.1039 26.3365 59.4946 33.6675C58.9044 35.376 57.4755 39.3521 56.3572 42.5206C55.2389 45.689 53.1266 51.4047 51.6355 55.2566C50.1755 59.1084 48.2185 64.2028 47.3177 66.5947C39.148 88.277 27.9341 112.444 21.1312 123.13C18.584 127.106 11.9986 135.431 5.47527 142.918C4.32592 144.222 3.17658 145.744 2.89701 146.272C1.93404 148.136 3.02126 150 5.04038 150C6.71781 150 10.6007 145.403 15.5088 137.699C16.9066 135.493 18.3977 133.133 18.8636 132.418L19.6713 131.144L22.001 131.89C30.5745 134.593 42.0991 133.785 49.7407 129.933C51.884 128.815 55.301 126.578 56.0465 125.739C56.6367 125.087 56.6367 125.056 56.0155 125.242C53.5304 125.957 48.2496 126.454 44.988 126.299C40.4216 126.05 37.2221 125.242 33.3392 123.317C30.6056 121.95 26.412 118.843 28.0584 119.403C32.9664 121.049 43.7765 121.453 49.6164 120.21C56.0465 118.843 60.5197 116.638 65.4588 112.444C67.074 111.046 70.6153 106.853 70.3668 106.604C70.3046 106.542 69.2174 107.07 67.9749 107.785C57.4444 113.749 44.3977 115.364 35.5447 111.823C32.2519 110.518 31.7239 110.146 33.4945 110.456C36.0727 110.922 45.8267 110.674 49.1815 110.084C60.8614 108.033 70.7085 102.287 76.0514 94.3965C77.7909 91.8493 80.2139 86.9412 80.8973 84.6115C81.6117 82.1264 82.233 79.0511 82.0466 78.8648C81.9845 78.8026 80.8352 79.9209 79.5305 81.3498C76.1446 85.1396 74.4671 86.6617 70.7706 89.3331C61.638 95.9807 52.4121 98.7764 39.7382 98.7454L35.5136 98.7143L36.4455 97.9688C37.5949 97.0369 41.4157 95.6701 47.0071 94.2412C52.8159 92.7501 56.3572 91.5076 59.9295 89.768C75.368 82.1575 84.4696 69.3283 86.7683 51.8706C87.2963 48.0498 87.3585 42.0857 86.9236 38.9483C86.4887 35.9351 85.681 32.5803 85.3393 32.5803C85.184 32.5803 85.0598 32.7356 85.0598 32.922C85.0598 33.6364 81.6739 38.1095 79.313 40.5325C72.8829 47.0869 66.049 50.4417 55.4563 52.2745C54.338 52.4919 54.2759 52.4609 54.6176 51.8706C54.804 51.4979 56.8852 50.2553 59.5256 48.9507C66.9809 45.2231 70.1804 43.0797 73.7838 39.3831C76.7037 36.37 77.5735 35.1585 79.0335 32.1143C82.699 24.4106 82.8232 16.7379 79.3441 9.74864C77.0143 5.027 73.5663 1.82747 69.497 0.553869C67.2915 -0.129526 63.626 -0.191653 61.3584 0.429615ZM29.3009 50.2553C31.0715 55.2876 34.9234 62.5875 36.8804 64.5445C37.5017 65.1658 37.5017 65.1969 36.9115 66.5015C36.6008 67.247 36.1659 68.5206 35.9485 69.3283L35.5757 70.8504L33.6187 67.4955C28.8971 59.5122 26.6295 51.6843 26.6916 43.6388V39.8802L27.4371 43.4525C27.8409 45.4405 28.6797 48.4847 29.3009 50.2553ZM74.9642 51.7153C70.2736 56.1263 64.2162 59.5433 58.5005 60.9722C55.0836 61.8109 51.4802 62.4633 51.2628 62.2458C51.0764 62.0595 51.884 61.7488 57.4133 59.8539C64.6822 57.3378 72.1685 53.4859 76.2067 50.1622C78.0394 48.64 77.4182 49.4166 74.9642 51.7153ZM69.2174 68.4585C69.2174 68.5206 68.006 69.5147 66.5149 70.664C60.8303 74.9197 52.4742 77.9329 46.2305 77.9329C45.2054 77.9329 45.0811 77.8397 45.2054 77.3116C45.3296 76.8456 45.8888 76.5971 47.7526 76.2244C55.3321 74.6091 62.7873 72.0619 66.7945 69.701C69.4349 68.1479 69.2174 68.2721 69.2174 68.4585ZM15.7883 97.0679C16.8445 98.9317 18.6462 101.634 19.8887 103.156C20.541 103.995 20.541 103.995 19.9819 105.704C19.4538 107.257 19.3296 107.381 18.8947 106.977C17.2794 105.517 13.9866 97.6892 13.0237 92.9365C12.0918 88.4323 12.2471 88.1838 13.5828 91.9425C14.2352 93.7441 15.2292 96.0428 15.7883 97.0679Z" fill="url(#paint0_linear_2_60)"/>
</g>
<defs>
<linearGradient id="paint0_linear_2_60" x1="43.6058" y1="0" x2="43.6058" y2="150" gradientUnits="userSpaceOnUse">
<stop stop-color="#0F3443"/>
<stop offset="1" stop-color="#34E89E"/>
</linearGradient>
<clipPath id="clip0_2_60">
<rect width="87.21" height="150" fill="white"/>
</clipPath>
</defs>
</svg>
